<svg width="20" height="21" viewBox="0 0 20 21" fill="none" xmlns="http://www.w3.org/2000/svg">
<path d="M2.46719 1.02031C1.40781 1.19844 0.517187 1.96719 0.1375 3.03125L-0.0078125 3.42969V11V18.5703L0.1375 18.9688C0.470312 19.9016 1.12187 20.5437 2.07344 20.8812L2.42969 21.0078H10H17.5703L17.9453 20.8766C18.4375 20.7031 18.7937 20.4781 19.1359 20.1359C19.4781 19.7937 19.7031 19.4375 19.8766 18.9453L20.0078 18.5703V11V3.42969L19.8766 3.05469C19.5437 2.11719 18.8969 1.46562 17.9687 1.1375L17.5703 0.992188L10.1406 0.987499C6.05312 0.982811 2.60312 0.996874 2.46719 1.02031ZM17.5937 2.66094C17.9219 2.81562 18.1844 3.07812 18.3391 3.40625L18.4609 3.66406V11V18.3359L18.3484 18.5797C18.2125 18.8891 17.8281 19.25 17.5234 19.3719C17.2937 19.4562 17.0828 19.4609 9.97656 19.4609H2.66406L2.40625 19.3391C2.07812 19.1844 1.81562 18.9219 1.66094 18.5938L1.53906 18.3359V11V3.66406L1.66094 3.40625C1.8625 2.97969 2.2375 2.67031 2.67344 2.56719C2.77656 2.54375 5.96406 2.52969 10.0937 2.52969L17.3359 2.53906L17.5937 2.66094Z" fill="#B6B0D9"/>
<path d="M6.03437 6.90765C5.95469 6.95453 5.71094 7.17953 5.5 7.4139C5.28437 7.64359 5.05 7.89671 4.97969 7.9764L4.84375 8.11234L4.64687 7.92015C4.38437 7.67171 4.28594 7.62484 4.02344 7.62484C3.55469 7.62484 3.25 7.92015 3.25 8.36546C3.25 8.5014 3.28281 8.67484 3.32031 8.74515C3.40469 8.9139 4.42656 9.86078 4.59062 9.92171C4.75469 9.98734 5.09687 9.98265 5.24219 9.91234C5.41562 9.83265 7.04219 8.06546 7.12656 7.86859C7.33281 7.37171 6.9625 6.82796 6.41875 6.82796C6.27812 6.82796 6.11875 6.86078 6.03437 6.90765Z" fill="#B6B0D9"/>
<path d="M8.0875 7.71863C7.85781 7.85925 7.75 8.07019 7.75 8.37957C7.75 8.68894 7.86719 8.89988 8.125 9.04988C8.28906 9.14832 8.34063 9.14832 12.25 9.14832C16.1594 9.14832 16.2109 9.14832 16.375 9.04988C16.6328 8.89988 16.75 8.68894 16.75 8.37957C16.75 8.07019 16.6422 7.85925 16.4125 7.71863C16.2625 7.62957 16.1688 7.62488 12.25 7.62488C8.33125 7.62488 8.2375 7.62957 8.0875 7.71863Z" fill="#B6B0D9"/>
<path d="M6.03902 12.1156C5.95933 12.1671 5.66402 12.4531 5.37339 12.7625L4.85308 13.3156L4.63746 13.1187C4.52027 13.0109 4.36558 12.8984 4.29996 12.875C3.95308 12.7437 3.47027 12.9125 3.32496 13.2218C3.22183 13.4375 3.22652 13.7984 3.33902 13.9765C3.42808 14.1312 4.36558 15.0171 4.52965 15.1109C4.67027 15.1906 5.10152 15.1859 5.2609 15.1015C5.47652 14.9937 7.07496 13.2359 7.14058 13.039C7.25777 12.6828 7.08902 12.2703 6.76089 12.1015C6.57808 12.0031 6.21246 12.0125 6.03902 12.1156Z" fill="#B6B0D9"/>
<path d="M8.0875 12.9218C7.85781 13.0624 7.75 13.2733 7.75 13.5827C7.75 13.8921 7.86719 14.103 8.125 14.253C8.28906 14.3514 8.34063 14.3514 12.25 14.3514C16.1594 14.3514 16.2109 14.3514 16.375 14.253C16.6328 14.103 16.75 13.8921 16.75 13.5827C16.75 13.2733 16.6422 13.0624 16.4125 12.9218C16.2625 12.8327 16.1688 12.828 12.25 12.828C8.33125 12.828 8.2375 12.8327 8.0875 12.9218Z" fill="#B6B0D9"/>
</svg>
