<svg width="16" height="16" viewBox="0 0 16 16" fill="none" xmlns="http://www.w3.org/2000/svg">
<g clip-path="url(#clip0_8_1131)">
<path d="M14.9422 7.79111C13.4444 5.02222 10.8178 3.34667 7.9111 3.34667C5.00444 3.34667 2.37332 5.02222 0.888879 7.79111L0.764435 8L0.87999 8.21333C2.37777 10.9822 5.00444 12.6578 7.9111 12.6578C10.8178 12.6578 13.4489 11.0044 14.9422 8.21333L15.0578 8L14.9422 7.79111ZM7.9111 11.7467C5.40888 11.7467 3.1111 10.3511 1.77777 8C3.1111 5.64889 5.40888 4.25333 7.9111 4.25333C10.4133 4.25333 12.6844 5.65333 14.04 8C12.6844 10.3511 10.4089 11.7467 7.9111 11.7467Z" fill="black"/>
<path d="M8.04001 11.0622C9.72386 11.0622 11.0889 9.69719 11.0889 8.01333C11.0889 6.32948 9.72386 4.96445 8.04001 4.96445C6.35615 4.96445 4.99112 6.32948 4.99112 8.01333C4.99112 9.69719 6.35615 11.0622 8.04001 11.0622Z" fill="black"/>
</g>
<defs>
<clipPath id="clip0_8_1131">
<rect width="16" height="16" fill="white"/>
</clipPath>
</defs>
</svg>
