<svg width="24" height="24" viewBox="0 0 24 24" fill="none" xmlns="http://www.w3.org/2000/svg">
<path d="M10.7391 1.34062C8.78909 1.62187 7.01253 2.55937 5.64378 4.03125C3.79222 6.02344 2.97659 8.87812 3.51566 11.4703C3.90472 13.3453 5.03909 15.2391 6.53909 16.5422C6.79691 16.7625 7.12972 17.0297 7.27503 17.1328L7.54691 17.3203V18.0187C7.54691 18.4266 7.57034 18.7969 7.60315 18.9094C7.69222 19.2047 8.06722 19.5516 8.41409 19.6641C8.68128 19.7531 8.85003 19.7578 12 19.7578H15.3047L15.586 19.6453C15.7688 19.5703 15.9469 19.4484 16.1063 19.2891C16.4344 18.9609 16.5 18.7406 16.5 17.9344L16.5047 17.3203L16.8375 17.0859C17.2688 16.7812 18.1594 15.9281 18.5438 15.45C20.0578 13.5562 20.8219 11.2219 20.6297 9.05156C20.4328 6.80625 19.486 4.90781 17.8172 3.40781C17.4328 3.06562 16.6219 2.50312 16.1203 2.24062C15.3188 1.81406 14.2922 1.48594 13.3032 1.34062C12.6938 1.24687 11.3625 1.24687 10.7391 1.34062ZM13.2422 2.88281C14.6907 3.13594 15.9188 3.75469 16.9547 4.74844C17.7938 5.55937 18.3516 6.42187 18.7172 7.47656C19.0078 8.31094 19.0547 8.62969 19.0547 9.70312C19.0547 10.575 19.0407 10.7109 18.9282 11.1797C18.4547 13.1766 17.2922 14.8641 15.6 16.0172C14.9719 16.4437 14.9532 16.4859 14.9532 17.475V18.2344H12H9.0469V17.4562C9.0469 16.4766 9.03284 16.4484 8.39534 16.0172C6.64222 14.8219 5.40941 13.0359 4.98284 11.0625C4.85628 10.4672 4.87034 9.19687 5.01097 8.53125C5.31097 7.10625 5.96253 5.89687 6.96097 4.89844C7.58909 4.27031 8.13753 3.87656 8.88284 3.51562C9.66565 3.13594 10.4016 2.91562 11.25 2.8125C11.7141 2.75625 12.7172 2.79375 13.2422 2.88281Z" fill="#BEB9DD"/>
<path d="M11.6016 7.23752C11.4375 7.33596 11.3297 7.49533 10.8 8.42346C10.4625 9.0094 10.1625 9.56252 10.1344 9.65158C9.97033 10.1344 10.1438 10.7578 10.5141 11.011C10.8141 11.2125 10.9828 11.25 11.5828 11.25C11.8922 11.25 12.1406 11.2594 12.1406 11.2781C12.1406 11.2922 11.9485 11.6344 11.7094 12.0375C11.3203 12.7031 11.2781 12.8016 11.2594 13.0547C11.2453 13.2938 11.2594 13.3594 11.3531 13.4953C11.6063 13.8656 11.9953 13.9735 12.3703 13.7719C12.5625 13.6688 12.6281 13.5797 13.1625 12.6563C13.486 12.1031 13.786 11.55 13.8328 11.4235C14.0391 10.9031 13.8844 10.261 13.486 9.98908C13.186 9.78752 13.0172 9.75002 12.4172 9.75002C12.1078 9.75002 11.8594 9.74065 11.8594 9.72658C11.8594 9.71252 12.061 9.35158 12.3047 8.92033C12.7078 8.21721 12.75 8.11408 12.75 7.89846C12.75 7.59377 12.6281 7.36408 12.3938 7.23283C12.1453 7.08752 11.8453 7.09221 11.6016 7.23752Z" fill="#BEB9DD"/>
<path d="M11.25 20.7469C9.74063 20.8735 8.33438 21.15 8.01563 21.375C7.84219 21.5016 7.73438 21.7407 7.73438 22.0172C7.73438 22.2844 7.85625 22.5094 8.07188 22.6407C8.33438 22.8 8.48906 22.8 9.09375 22.6453C10.0969 22.3922 10.8656 22.2985 12 22.2985C13.1391 22.2985 13.8375 22.3828 14.8969 22.6453C15.5719 22.8141 15.7313 22.8047 16.0078 22.5844C16.3594 22.3125 16.35 21.7125 15.9891 21.4078C15.6234 21.0985 13.8328 20.7797 12.2859 20.7469C11.8313 20.7375 11.3672 20.7375 11.25 20.7469Z" fill="#BEB9DD"/>
</svg>
