<svg width="28" height="28" viewBox="0 0 28 28" fill="none" xmlns="http://www.w3.org/2000/svg">
<path d="M5.56199 4.83873L5.56187 4.83895C5.53744 4.88394 5.51655 4.92245 5.5029 4.96508C5.48886 5.00891 5.48297 5.05512 5.48436 5.11704C5.48707 5.23752 5.51796 5.42746 5.57774 5.79391C5.60908 5.99767 5.63646 6.18539 5.65402 6.32333C5.66282 6.39243 5.66909 6.44842 5.67218 6.4875C5.67316 6.49981 5.67379 6.51003 5.6741 6.5182C5.6693 6.52004 5.66379 6.52214 5.65758 6.52448C5.63045 6.53467 5.59089 6.54915 5.54012 6.56748C5.43864 6.60411 5.293 6.65586 5.11393 6.71893C4.75582 6.84505 4.26435 7.01628 3.72579 7.2019C2.64881 7.5731 1.63355 7.92895 1.46548 7.99198L1.46541 7.992C1.28064 8.06163 1.14494 8.14808 1.05595 8.26483C0.966409 8.38231 0.92815 8.52519 0.92815 8.69951C0.92815 8.71407 0.932329 8.73504 0.937515 8.7571C0.943124 8.78095 0.951316 8.81158 0.961803 8.84826C0.9828 8.92172 1.0135 9.02118 1.05245 9.14265C1.13039 9.38569 1.24181 9.7182 1.37589 10.1099C1.64407 10.8934 2.00319 11.9145 2.367 12.932C2.73082 13.9496 3.09942 14.9639 3.38657 15.7336C3.53013 16.1184 3.65341 16.4424 3.7456 16.6751C3.79167 16.7914 3.83012 16.8853 3.85952 16.9528C3.8742 16.9865 3.88684 17.0141 3.89718 17.0347C3.90234 17.0451 3.90717 17.0541 3.91159 17.0616C3.91542 17.0681 3.92061 17.0763 3.92684 17.0828M5.56199 4.83873L8.82468 24.5161L8.82462 24.5158C8.82353 24.5121 8.82238 24.5077 8.82119 24.5028C8.81879 24.493 8.81582 24.4797 8.81234 24.4633C8.80535 24.4303 8.79599 24.3833 8.78439 24.3231C8.76119 24.2028 8.7289 24.0289 8.68857 23.8075C8.6079 23.3647 8.49496 22.7311 8.358 21.9539C8.0841 20.3993 7.7141 18.2695 7.31403 15.9397C6.91398 13.61 6.54922 11.4895 6.28253 9.95008C6.14918 9.18037 6.04035 8.556 5.96388 8.12343C5.92564 7.90712 5.89552 7.73886 5.87446 7.6244C5.86393 7.56713 5.85571 7.52351 5.84989 7.49411C5.84979 7.49364 5.8497 7.49317 5.84961 7.49271C5.82493 7.49917 5.7901 7.50916 5.74586 7.52247C5.65078 7.55108 5.51423 7.59442 5.34636 7.64928C5.01071 7.75899 4.55082 7.91446 4.04901 8.08957L4.04874 8.08967C3.03926 8.43488 2.14012 8.74331 2.0515 8.77458L2.05153 8.77469L2.04848 8.77554C2.00551 8.78747 1.96648 8.80533 1.93905 8.82248C1.92749 8.8297 1.91896 8.83619 1.91331 8.84135L1.91481 8.8462C1.91943 8.86066 1.92639 8.88162 1.93562 8.90889C1.95406 8.96337 1.9813 9.04227 2.01642 9.14298C2.08665 9.34436 2.18827 9.63255 2.31376 9.98616C2.56475 10.6934 2.91118 11.6621 3.29291 12.721L3.29293 12.721C3.70871 13.8795 4.05524 14.8615 4.29786 15.5678C4.41915 15.9209 4.51455 16.2053 4.57965 16.4083C4.61219 16.5099 4.63728 16.5914 4.65427 16.6512C4.66275 16.6811 4.66934 16.706 4.67385 16.7254C4.67797 16.7432 4.68147 16.7609 4.68147 16.7739C4.68147 16.9029 4.64216 17.0163 4.56198 17.0903L4.56141 17.0908C4.47733 17.1659 4.35389 17.2007 4.23741 17.2C4.12159 17.1993 4.00139 17.1633 3.92684 17.0828M5.56199 4.83873C5.62179 4.73 5.7305 4.5985 5.81089 4.54103M5.56199 4.83873L5.81089 4.54103M3.92684 17.0828C3.92697 17.083 3.92709 17.0831 3.92721 17.0832L3.96053 17.051M3.92684 17.0828C3.92672 17.0827 3.9266 17.0826 3.92648 17.0824L3.96053 17.051M7.57174 27.2997C7.62279 27.3806 7.71897 27.4519 7.82466 27.5027C7.9313 27.554 8.05453 27.5877 8.16504 27.5877C8.17123 27.5877 8.17708 27.5866 8.17979 27.586C8.18352 27.5853 8.1877 27.5843 8.19211 27.5831C8.20098 27.5808 8.21248 27.5776 8.22629 27.5734C8.254 27.5651 8.2926 27.5528 8.34131 27.5368C8.43882 27.5048 8.57797 27.4578 8.75404 27.3973C9.10622 27.2763 9.60676 27.1014 10.2186 26.8856C11.4425 26.4542 13.1121 25.8593 14.932 25.2056L14.932 25.2056L21.5486 22.8275L22.4754 22.6713L22.4755 22.6713C23.3918 22.5151 23.4251 22.5151 25.3439 22.5151C26.1595 22.5151 26.652 22.5125 26.9563 22.5014C27.1084 22.4958 27.2149 22.488 27.2919 22.4771C27.3683 22.4663 27.419 22.452 27.4574 22.4313M7.57174 27.2997L27.4578 22.4311C27.4577 22.4312 27.4575 22.4312 27.4574 22.4313M7.57174 27.2997C7.57166 27.2996 7.57158 27.2995 7.5715 27.2994L7.61072 27.2747L7.57174 27.2997ZM27.4574 22.4313C27.4756 22.4219 27.4929 22.4152 27.5111 22.4082L27.5126 22.4076C27.5298 22.4009 27.5493 22.3934 27.5678 22.3831C27.6097 22.3598 27.643 22.3245 27.669 22.2588C27.694 22.1959 27.7129 22.1032 27.7282 21.9623C27.7435 21.8207 27.7553 21.6272 27.7644 21.3604C27.7967 20.4199 27.7965 18.5572 27.796 14.819C27.7959 14.318 27.7958 13.7833 27.7958 13.2126V4.42701V4.40782L27.7823 4.39425L27.5835 4.19553L27.5833 4.19529C27.2247 3.8419 26.4033 3.05847 25.6601 2.35708C25.2884 2.00633 24.9361 1.67595 24.6709 1.42995C24.5382 1.30697 24.4272 1.20498 24.3464 1.13203C24.306 1.09558 24.2729 1.06622 24.2484 1.04506C24.2361 1.0345 24.2257 1.02578 24.2175 1.01916C24.2105 1.01349 24.2022 1.00703 24.1952 1.00315M27.4574 22.4313L24.1952 1.00315M24.1952 1.00315C24.1873 0.998672 24.1786 0.996042 24.1719 0.994326C24.1677 0.993246 24.1631 0.992249 24.1583 0.991316C24.1546 0.99061 24.1507 0.989943 24.1467 0.989305C24.128 0.986341 24.1036 0.983644 24.0733 0.981133C24.0127 0.976097 23.9257 0.971573 23.8089 0.96748C23.5751 0.959286 23.2193 0.952745 22.7101 0.947515C21.6914 0.937054 20.0569 0.931824 17.552 0.929211H17.552C14.3701 0.929211 12.7406 0.930515 11.8864 0.94425C11.4597 0.951111 11.2247 0.961084 11.0859 0.975798C11.0164 0.983168 10.9691 0.991905 10.933 1.00274C10.8959 1.0139 10.8721 1.02689 10.8498 1.04058M24.1952 1.00315L10.5445 2.59146C10.5445 3.59029 10.534 3.68966 10.4556 3.7158M10.8498 1.04058C10.8498 1.0406 10.8497 1.04061 10.8497 1.04063L10.8739 1.08014L10.85 1.04046C10.8499 1.0405 10.8499 1.04054 10.8498 1.04058ZM10.8498 1.04058C10.7731 1.08685 10.709 1.13135 10.6586 1.19279C10.6077 1.25502 10.5735 1.33132 10.5502 1.43758C10.5044 1.64634 10.4981 1.98454 10.4981 2.59146C10.4981 3.09173 10.4955 3.36401 10.4832 3.51464C10.4771 3.59077 10.4687 3.63038 10.4598 3.65161C10.4557 3.66134 10.4523 3.66521 10.4505 3.66685C10.449 3.66829 10.4467 3.66981 10.4418 3.67154M10.4418 3.67154C10.4422 3.67143 10.4423 3.67139 10.4422 3.67142L10.4556 3.7158M10.4418 3.67154C10.4416 3.67159 10.4414 3.67164 10.4411 3.67171L10.4375 3.67257L10.4251 3.67523C10.4147 3.67738 10.4007 3.68014 10.383 3.6835C10.3477 3.69022 10.2986 3.69921 10.2373 3.71023C10.1146 3.73227 9.9433 3.76232 9.73579 3.79827C9.32079 3.87016 8.76131 3.96558 8.15735 4.06755M10.4418 3.67154C10.4415 3.67164 10.4412 3.67174 10.4409 3.67184L10.4556 3.7158M10.4556 3.7158L8.15735 4.06755M2.03607 8.73089C1.94194 8.75704 1.8635 8.80933 1.8635 8.83548C1.8635 8.86163 2.48581 10.6187 3.24932 12.7367C4.08081 15.0533 4.63513 16.664 4.63513 16.7739C4.63513 16.8941 4.59853 16.9935 4.53054 17.0562C4.38412 17.187 4.08604 17.187 3.96053 17.051M2.03607 8.73089L3.96053 17.051M2.03607 8.73089C2.12498 8.69951 3.02445 8.39097 4.03374 8.04582L2.03607 8.73089ZM8.15735 4.06755C7.38071 4.1983 6.82187 4.29776 6.44526 4.37308C6.25703 4.41072 6.11367 4.44247 6.01114 4.4692C5.95991 4.48255 5.91822 4.49482 5.88591 4.50615C5.8549 4.51701 5.82849 4.52835 5.81089 4.54103M8.15735 4.06755L5.81089 4.54103M17.7337 22.5375L13.9358 23.1866L13.9358 23.1866C12.7488 23.3905 11.6678 23.5709 10.8816 23.6977C10.4885 23.7611 10.1692 23.8111 9.94733 23.8439C9.83633 23.8603 9.75001 23.8724 9.69108 23.8797C9.67022 23.8823 9.65308 23.8842 9.63963 23.8855C9.63832 23.8791 9.63687 23.8719 9.63527 23.8638C9.62796 23.8267 9.61779 23.7726 9.60492 23.7026C9.5792 23.5627 9.54284 23.3597 9.49736 23.1024C9.40643 22.5881 9.27911 21.8574 9.12774 20.9827C8.82501 19.2333 8.42611 16.9079 8.02965 14.5841C7.63319 12.2602 7.23919 9.93803 6.94626 8.19519C6.7998 7.32376 6.67862 6.59722 6.59503 6.08774C6.55323 5.83298 6.52086 5.6326 6.49942 5.49554C6.4887 5.42698 6.48075 5.37445 6.47573 5.33895C6.47496 5.33349 6.47426 5.32847 6.47364 5.32388C6.47624 5.32328 6.47901 5.32266 6.48192 5.32201C6.51123 5.31547 6.55387 5.30671 6.60821 5.296C6.71676 5.27461 6.87077 5.24573 7.0555 5.21191C7.4249 5.14429 7.9165 5.05705 8.41159 4.97077C8.90669 4.8845 9.40516 4.79922 9.78831 4.73551C9.97991 4.70365 10.1425 4.67721 10.2615 4.65874C10.321 4.6495 10.3693 4.64228 10.4048 4.63739C10.4221 4.63501 10.4361 4.6332 10.4468 4.63199C10.4513 4.64785 10.4563 4.67476 10.4609 4.71808C10.4712 4.81472 10.4789 4.98023 10.4844 5.25421C10.4955 5.80142 10.4981 6.77486 10.4981 8.47987V12.3811V12.4008L10.5124 12.4145L10.6425 12.5394C10.8112 12.7133 11.0732 12.7245 11.2585 12.5741C11.2586 12.5741 11.2587 12.574 11.2587 12.5739L11.3838 12.4749L11.4013 12.4611L11.4014 12.4387L11.4171 7.12557V7.12552L11.4274 1.8586H17.3167H23.2011L23.2163 3.13057L17.7337 22.5375ZM17.7337 22.5375L14.597 22.5151C14.43 22.514 14.2702 22.513 14.1174 22.512C12.4347 22.5013 11.5951 22.496 11.1608 22.4581C10.9257 22.4375 10.7988 22.407 10.7211 22.3532C10.6557 22.3078 10.6279 22.2463 10.5997 22.1838C10.5937 22.1705 10.5876 22.1571 10.5812 22.1438L10.5809 22.1431C10.56 22.0982 10.5463 22.0268 10.5358 21.8975C10.5251 21.7665 10.5174 21.57 10.5119 21.2701C10.5007 20.6702 10.4981 19.6525 10.4981 17.9087V13.8558V13.8354L10.5132 13.8216L10.633 13.7122C10.6331 13.7121 10.6332 13.712 10.6333 13.7119C10.8189 13.5381 11.1035 13.544 11.2831 13.7288L11.4133 13.8537L11.4275 13.8674V13.8872V17.7622V21.5857H19.1731H26.9187V13.4008V5.21023L25.4637 5.19502L23.9576 5.17933L23.9453 5.1792L23.9347 5.17296L23.6941 5.03176L23.6941 5.03175C23.5896 4.97038 23.5043 4.91605 23.4381 4.84406C23.3706 4.77071 23.3252 4.68174 23.2941 4.55438C23.233 4.30465 23.2241 3.89379 23.2163 3.13065L17.7337 22.5375ZM9.09737 24.769C8.9826 24.7093 8.88082 24.6253 8.83022 24.5302L6.73216 22.4217L6.77575 22.406C6.77575 22.406 6.77576 22.406 6.77576 22.406C7.1915 23.5591 7.57062 24.6089 7.84712 25.3717C7.98537 25.7531 8.09795 26.0627 8.17661 26.2776C8.21594 26.3851 8.24677 26.4688 8.26808 26.526C8.27553 26.5459 8.28179 26.5626 8.28683 26.5759C8.29939 26.5719 8.31495 26.5669 8.33349 26.5607C8.39013 26.5421 8.47324 26.5138 8.58006 26.477C8.79365 26.4034 9.10141 26.2955 9.48051 26.1616C10.2387 25.8936 11.2819 25.521 12.427 25.1079C13.5723 24.6948 14.6129 24.3183 15.3659 24.0444C15.6832 23.929 15.9493 23.8319 16.1507 23.7579C15.995 23.7837 15.803 23.8159 15.5816 23.8532C14.9542 23.9591 14.0901 24.1068 13.141 24.2715L13.1409 24.2716C12.1917 24.4337 11.3051 24.5827 10.6415 24.6913C10.3097 24.7455 10.0335 24.7897 9.83297 24.8203C9.73274 24.8356 9.65123 24.8475 9.59108 24.8556C9.53268 24.8635 9.49067 24.8684 9.47242 24.8684C9.34841 24.8684 9.21297 24.8292 9.09737 24.769ZM4.4995 18.1308C4.49953 18.1308 4.49956 18.1308 4.49959 18.1307L4.53577 18.1597L4.49938 18.131C4.49942 18.1309 4.49946 18.1309 4.4995 18.1308ZM1.90899 8.82707L1.90905 8.82726L1.90899 8.82707ZM5.69506 6.50981C5.6957 6.50952 5.69553 6.50958 5.69492 6.5099L5.69506 6.50981ZM25.7827 3.78081L25.7824 3.78047C25.4531 3.46167 24.9304 2.96507 24.622 2.67765L24.622 2.6776L24.1352 2.22235V3.15625C24.1352 3.5249 24.1391 3.78786 24.1489 3.96427C24.1537 4.05261 24.16 4.11791 24.1676 4.1634C24.1715 4.18619 24.1755 4.20276 24.1793 4.21422C24.1818 4.22147 24.1837 4.22517 24.1845 4.22666C24.186 4.22748 24.1898 4.22939 24.1973 4.23185C24.2091 4.23573 24.2263 4.23974 24.2501 4.24359C24.2974 4.25128 24.3657 4.25755 24.4587 4.26242C24.6442 4.27216 24.9229 4.27609 25.3176 4.27609C25.3176 4.27609 25.3177 4.27609 25.3178 4.27609L26.3003 4.27141L25.7827 3.78081Z" fill="#6B4EFF" stroke="#6B4EFF" stroke-width="0.0926751"/>
<path d="M13.3423 6.80647C13.2586 6.88491 13.2115 6.99473 13.2115 7.09409C13.2115 7.19345 13.2586 7.30327 13.3423 7.38171L13.4678 7.51245H19.215C24.9518 7.51245 24.9622 7.51245 25.1034 7.40263C25.2865 7.26144 25.2917 6.9529 25.1191 6.79078L24.9988 6.67573H19.2307H13.4678L13.3423 6.80647Z" fill="#6B4EFF"/>
<path d="M13.4363 9.49963C13.201 9.59376 13.1435 9.91799 13.3213 10.1481L13.4258 10.2841H19.2306C24.9621 10.2841 25.0301 10.2841 25.1347 10.1795C25.2968 10.0174 25.2759 9.69312 25.1033 9.55716C24.9621 9.44734 24.9517 9.44734 19.2567 9.45257C16.1033 9.45257 13.4991 9.47349 13.4363 9.49963Z" fill="#6B4EFF"/>
<path d="M13.3161 12.3864C13.2586 12.4492 13.2115 12.5694 13.2115 12.6636C13.2115 12.7577 13.2586 12.878 13.3161 12.9407L13.426 13.0558H19.2255C24.9622 13.0558 25.0302 13.0558 25.1348 12.9512C25.1975 12.8884 25.2394 12.7786 25.2394 12.6636C25.2394 12.5485 25.1975 12.4387 25.1348 12.376C25.0302 12.2714 24.9622 12.2714 19.2255 12.2714H13.426L13.3161 12.3864Z" fill="#6B4EFF"/>
<path d="M13.3214 15.1789C13.1854 15.3515 13.1802 15.5711 13.3109 15.728L13.4103 15.8535L19.1889 15.8692L24.9623 15.8796L25.0982 15.7698C25.276 15.6339 25.2969 15.3096 25.1348 15.1475C25.0302 15.0429 24.9623 15.0429 19.2307 15.0429H13.426L13.3214 15.1789Z" fill="#6B4EFF"/>
<path d="M13.3423 17.9454C13.2586 18.0238 13.2115 18.1336 13.2115 18.233C13.2115 18.3324 13.2586 18.4422 13.3423 18.5206L13.4678 18.6514H19.2412H25.0145L25.1243 18.5311C25.2917 18.3533 25.2812 18.0657 25.1034 17.9245C24.9622 17.8146 24.9518 17.8146 19.215 17.8146H13.4678L13.3423 17.9454Z" fill="#6B4EFF"/>
</svg>
